<svg width="52" height="62" viewBox="0 0 52 62" fill="none" xmlns="http://www.w3.org/2000/svg">
<path d="M16.9659 25.8136C15.4026 23.8334 14.5558 21.3822 14.5634 18.8593C14.5631 16.8729 15.0869 14.9216 16.082 13.2025C17.077 11.4833 18.508 10.0571 20.2305 9.06781C21.953 8.07854 23.906 7.56125 25.8923 7.56817C27.8787 7.57509 29.828 8.10596 31.5436 9.1072C33.2592 10.1084 34.6802 11.5446 35.6632 13.2707C36.6462 14.9967 37.1564 16.9516 37.1423 18.9379C37.1282 20.9242 36.5903 22.8716 35.5828 24.5836C34.5754 26.2955 33.1341 27.7113 31.4045 28.6881C31.1733 28.8192 30.992 29.0231 30.8889 29.268C30.7858 29.513 30.7667 29.7852 30.8346 30.0421C30.9024 30.2991 31.0534 30.5263 31.264 30.6884C31.4746 30.8505 31.7329 30.9384 31.9987 30.9383C32.2064 30.939 32.4106 30.885 32.5907 30.7817C35.0303 29.4041 36.9889 27.3117 38.2025 24.7866C39.4161 22.2614 39.8265 19.4249 39.3782 16.6594C38.9299 13.8938 37.6445 11.3322 35.6953 9.31976C33.7462 7.30731 31.2269 5.9408 28.477 5.40442C25.7272 4.86803 22.8791 5.18756 20.3165 6.31993C17.7539 7.4523 15.6 9.34307 14.1452 11.7374C12.6904 14.1317 12.0046 16.9145 12.1803 19.7106C12.3559 22.5068 13.3846 25.1818 15.1276 27.3753C15.149 27.401 15.1726 27.4225 15.1962 27.4461C15.2046 27.4557 15.2125 27.4657 15.2198 27.4761L28.7017 40.958C28.8135 41.0698 28.9463 41.1585 29.0924 41.219C29.2385 41.2796 29.3951 41.3107 29.5533 41.3107C29.7114 41.3107 29.868 41.2796 30.0142 41.219C30.1603 41.1585 30.293 41.0698 30.4049 40.958C30.5167 40.8461 30.6054 40.7134 30.6659 40.5673C30.7265 40.4211 30.7576 40.2645 30.7576 40.1064C30.7576 39.9482 30.7265 39.7916 30.6659 39.6455C30.6054 39.4994 30.5167 39.3666 30.4049 39.2548L16.9659 25.8136Z" fill="black"/>
<path d="M25.8122 27.3988H25.853C26.717 27.399 27.5762 27.2688 28.4014 27.0127C30.1365 26.4715 31.6538 25.3911 32.7328 23.9285C33.8118 22.4659 34.3962 20.6973 34.4012 18.8798C34.4062 17.0623 33.8314 15.2905 32.7605 13.822C31.6895 12.3535 30.1782 11.2648 28.446 10.7141C26.7139 10.1634 24.8513 10.1794 23.129 10.7599C21.4066 11.3403 19.9142 12.4548 18.8687 13.9415C17.8231 15.4282 17.2789 17.2096 17.3152 19.0268C17.3514 20.844 17.9662 22.6023 19.0702 24.0461C19.4272 24.515 19.8312 24.9463 20.2758 25.3331C20.4903 25.5219 20.7155 25.7107 20.9193 25.9166L32.3355 37.3306C32.5613 37.5562 32.8675 37.6828 33.1867 37.6826C33.3448 37.6825 33.5013 37.6513 33.6473 37.5907C33.7933 37.5301 33.9259 37.4414 34.0376 37.3295C34.1493 37.2177 34.2379 37.085 34.2983 36.9389C34.3586 36.7928 34.3897 36.6363 34.3896 36.4782C34.3895 36.3202 34.3582 36.1637 34.2977 36.0177C34.2371 35.8717 34.1483 35.7391 34.0365 35.6274L25.8122 27.3988ZM26.548 12.7672C27.4152 12.87 28.2505 13.1569 28.9979 13.6086C29.7454 14.0603 30.3877 14.6664 30.882 15.3864C31.3762 16.1063 31.711 16.9236 31.864 17.7834C32.0169 18.6432 31.9844 19.5257 31.7688 20.372C31.5531 21.2183 31.1591 22.0087 30.6133 22.6904C30.0675 23.3721 29.3824 23.9294 28.6038 24.325C27.8252 24.7205 26.9711 24.9453 26.0987 24.9841C25.2262 25.0229 24.3555 24.875 23.5449 24.5502C22.8403 24.2506 22.2028 23.813 21.6701 23.2631L21.4899 23.0829C20.921 22.5351 20.468 21.8786 20.1578 21.1524C19.7595 20.1666 19.6243 19.0942 19.7653 18.0404C19.9064 16.9866 20.3189 15.9876 20.9623 15.1412C21.6058 14.2949 22.4582 13.6303 23.4359 13.2126C24.4136 12.7949 25.4831 12.6385 26.5394 12.7586L26.548 12.7672Z" fill="black"/>
<path d="M44.7064 18.8593C44.7074 15.7827 43.9554 12.7527 42.5162 10.0335C41.077 7.31438 38.9942 4.98876 36.4495 3.25961C33.9049 1.53045 30.9758 0.450289 27.9177 0.113386C24.8597 -0.223516 21.7657 0.193075 18.9056 1.32681C16.0456 2.46054 13.5065 4.27696 11.5098 6.61757C9.51315 8.95819 8.11963 11.7519 7.45084 14.7548C6.78206 17.7578 6.85833 20.8788 7.67301 23.8455C8.48768 26.8123 10.016 29.5345 12.1246 31.7748C12.171 31.8521 12.2256 31.924 12.2876 31.9893L24.9951 44.6732C25.223 44.8875 25.5253 45.0047 25.838 44.9999C26.1508 44.9951 26.4493 44.8687 26.6705 44.6475C26.8916 44.4264 27.018 44.1278 27.0228 43.8151C27.0276 43.5023 26.9105 43.2 26.6962 42.9722L14.1324 30.4084C14.1019 30.3632 14.0682 30.3202 14.0316 30.2797C11.7801 27.9482 10.2677 25.0034 9.68433 21.8152C9.10097 18.627 9.47265 15.3375 10.7527 12.3598C12.0328 9.38211 14.1641 6.84904 16.8791 5.07871C19.594 3.30838 22.7716 2.37972 26.0126 2.40937C29.2536 2.43902 32.4136 3.42565 35.0957 5.24535C37.7778 7.06505 39.8625 9.63669 41.0879 12.6373C42.3132 15.6379 42.6247 18.9336 41.9831 22.1107C41.3415 25.2877 39.7755 28.2043 37.4817 30.4942C37.4811 30.4985 37.4811 30.5028 37.4817 30.5071L37.4667 30.5178L35.0771 32.8903C34.8512 33.1158 34.7242 33.4219 34.724 33.7411C34.7238 34.0603 34.8504 34.3665 35.076 34.5924C35.3016 34.8183 35.6076 34.9453 35.9268 34.9455C36.246 34.9457 36.5523 34.819 36.7781 34.5935L39.1527 32.2081L39.1634 32.1974H39.1763C40.9349 30.4508 42.3293 28.3724 43.2786 26.0828C44.2279 23.7931 44.7132 21.3378 44.7064 18.8593Z" fill="black"/>
<path d="M9.86805 59.82C10.028 59.82 10.168 59.88 10.288 60C10.408 60.1067 10.468 60.24 10.468 60.4C10.468 60.5733 10.408 60.72 10.288 60.84C10.168 60.9467 10.028 61 9.86805 61H2.72805C2.55471 61 2.40805 60.94 2.28805 60.82C2.18138 60.7 2.12805 60.56 2.12805 60.4V47.6C2.12805 47.44 2.18805 47.3 2.30805 47.18C2.42805 47.06 2.58138 47 2.76805 47C2.92805 47 3.06805 47.06 3.18805 47.18C3.32138 47.3 3.38805 47.44 3.38805 47.6V60.16L3.00805 59.82H9.86805ZM25.0573 54C25.0573 55.0533 24.8906 56.02 24.5573 56.9C24.2373 57.7667 23.7773 58.5267 23.1773 59.18C22.5773 59.82 21.8639 60.32 21.0373 60.68C20.2239 61.0267 19.3306 61.2 18.3573 61.2C17.3839 61.2 16.4839 61.0267 15.6573 60.68C14.8439 60.32 14.1373 59.82 13.5373 59.18C12.9373 58.5267 12.4706 57.7667 12.1373 56.9C11.8173 56.02 11.6573 55.0533 11.6573 54C11.6573 52.9467 11.8173 51.9867 12.1373 51.12C12.4706 50.24 12.9373 49.48 13.5373 48.84C14.1373 48.1867 14.8439 47.6867 15.6573 47.34C16.4839 46.98 17.3839 46.8 18.3573 46.8C19.3306 46.8 20.2239 46.98 21.0373 47.34C21.8639 47.6867 22.5773 48.1867 23.1773 48.84C23.7773 49.48 24.2373 50.24 24.5573 51.12C24.8906 51.9867 25.0573 52.9467 25.0573 54ZM23.7773 54C23.7773 52.8133 23.5439 51.7733 23.0773 50.88C22.6239 49.9733 21.9906 49.2667 21.1773 48.76C20.3639 48.2533 19.4239 48 18.3573 48C17.3039 48 16.3639 48.2533 15.5373 48.76C14.7239 49.2667 14.0839 49.9733 13.6173 50.88C13.1639 51.7733 12.9373 52.8133 12.9373 54C12.9373 55.1867 13.1639 56.2333 13.6173 57.14C14.0839 58.0333 14.7239 58.7333 15.5373 59.24C16.3639 59.7467 17.3039 60 18.3573 60C19.4239 60 20.3639 59.7467 21.1773 59.24C21.9906 58.7333 22.6239 58.0333 23.0773 57.14C23.5439 56.2333 23.7773 55.1867 23.7773 54ZM33.5898 47C34.5764 47 35.4364 47.1867 36.1698 47.56C36.9164 47.9333 37.5298 48.4533 38.0098 49.12C38.4898 49.7733 38.8431 50.52 39.0698 51.36C39.3098 52.2 39.4298 53.08 39.4298 54C39.4298 55.28 39.2164 56.4533 38.7898 57.52C38.3764 58.5733 37.7364 59.42 36.8698 60.06C36.0164 60.6867 34.9231 61 33.5898 61H28.4898C28.3298 61 28.1898 60.94 28.0698 60.82C27.9498 60.7 27.8898 60.56 27.8898 60.4V47.6C27.8898 47.44 27.9498 47.3 28.0698 47.18C28.1898 47.06 28.3298 47 28.4898 47H33.5898ZM33.3898 59.82C34.5231 59.82 35.4364 59.56 36.1298 59.04C36.8231 58.52 37.3298 57.82 37.6498 56.94C37.9831 56.0467 38.1498 55.0667 38.1498 54C38.1498 53.2267 38.0564 52.4933 37.8698 51.8C37.6964 51.0933 37.4164 50.4733 37.0298 49.94C36.6564 49.3933 36.1631 48.9667 35.5498 48.66C34.9498 48.34 34.2298 48.18 33.3898 48.18H29.0098L29.1498 48V60.02L29.0298 59.82H33.3898ZM42.8648 47H50.2048C50.3648 47 50.5048 47.06 50.6248 47.18C50.7448 47.2867 50.8048 47.4267 50.8048 47.6C50.8048 47.7733 50.7448 47.9133 50.6248 48.02C50.5048 48.1267 50.3648 48.18 50.2048 48.18H43.3248L43.5248 47.84V53.46L43.3048 53.2H49.3048C49.4648 53.2 49.6048 53.26 49.7248 53.38C49.8448 53.5 49.9048 53.64 49.9048 53.8C49.9048 53.9733 49.8448 54.1133 49.7248 54.22C49.6048 54.3267 49.4648 54.38 49.3048 54.38H43.3448L43.5248 54.18V59.94L43.4248 59.82H50.2048C50.3648 59.82 50.5048 59.88 50.6248 60C50.7448 60.12 50.8048 60.26 50.8048 60.42C50.8048 60.5933 50.7448 60.7333 50.6248 60.84C50.5048 60.9467 50.3648 61 50.2048 61H42.8648C42.7048 61 42.5648 60.94 42.4448 60.82C42.3248 60.7 42.2648 60.56 42.2648 60.4V47.6C42.2648 47.44 42.3248 47.3 42.4448 47.18C42.5648 47.06 42.7048 47 42.8648 47Z" fill="black"/>
</svg>
