<svg width="95" height="45" viewBox="0 0 95 45" fill="none" xmlns="http://www.w3.org/2000/svg">
<path d="M9.9659 25.8136C8.40263 23.8334 7.55583 21.3822 7.5634 18.8593C7.56313 16.8729 8.08694 14.9216 9.08196 13.2025C10.077 11.4833 11.508 10.0571 13.2305 9.06781C14.953 8.07854 16.906 7.56125 18.8923 7.56817C20.8787 7.57509 22.828 8.10596 24.5436 9.1072C26.2592 10.1084 27.6802 11.5446 28.6632 13.2707C29.6462 14.9967 30.1564 16.9516 30.1423 18.9379C30.1282 20.9242 29.5903 22.8716 28.5828 24.5836C27.5754 26.2955 26.1341 27.7113 24.4045 28.6881C24.1733 28.8192 23.992 29.0231 23.8889 29.268C23.7858 29.513 23.7667 29.7852 23.8346 30.0421C23.9024 30.2991 24.0534 30.5263 24.264 30.6884C24.4746 30.8505 24.7329 30.9384 24.9987 30.9383C25.2064 30.939 25.4106 30.885 25.5907 30.7817C28.0303 29.4041 29.9889 27.3117 31.2025 24.7866C32.4161 22.2614 32.8265 19.4249 32.3782 16.6594C31.9299 13.8938 30.6445 11.3322 28.6953 9.31976C26.7462 7.30731 24.2269 5.9408 21.477 5.40442C18.7272 4.86803 15.8791 5.18756 13.3165 6.31993C10.7539 7.4523 8.6 9.34307 7.14521 11.7374C5.69042 14.1317 5.00463 16.9145 5.18028 19.7106C5.35593 22.5068 6.38457 25.1818 8.12756 27.3753C8.14901 27.401 8.17261 27.4225 8.19621 27.4461C8.20459 27.4557 8.21246 27.4657 8.2198 27.4761L21.7017 40.958C21.8135 41.0698 21.9463 41.1585 22.0924 41.219C22.2385 41.2796 22.3951 41.3107 22.5533 41.3107C22.7114 41.3107 22.868 41.2796 23.0142 41.219C23.1603 41.1585 23.293 41.0698 23.4049 40.958C23.5167 40.8461 23.6054 40.7134 23.6659 40.5673C23.7265 40.4211 23.7576 40.2645 23.7576 40.1064C23.7576 39.9482 23.7265 39.7916 23.6659 39.6455C23.6054 39.4994 23.5167 39.3666 23.4049 39.2548L9.9659 25.8136Z" fill="black"/>
<path d="M18.8122 27.3988H18.853C19.717 27.399 20.5762 27.2688 21.4014 27.0127C23.1365 26.4715 24.6538 25.3911 25.7328 23.9285C26.8118 22.4659 27.3962 20.6973 27.4012 18.8798C27.4062 17.0623 26.8314 15.2905 25.7605 13.822C24.6895 12.3535 23.1782 11.2648 21.446 10.7141C19.7139 10.1634 17.8513 10.1794 16.129 10.7599C14.4066 11.3403 12.9142 12.4548 11.8687 13.9415C10.8231 15.4282 10.2789 17.2096 10.3152 19.0268C10.3514 20.844 10.9662 22.6023 12.0702 24.0461C12.4272 24.515 12.8312 24.9463 13.2758 25.3331C13.4903 25.5219 13.7155 25.7107 13.9193 25.9166L25.3355 37.3306C25.5613 37.5562 25.8675 37.6828 26.1867 37.6826C26.3448 37.6825 26.5013 37.6513 26.6473 37.5907C26.7933 37.5301 26.9259 37.4414 27.0376 37.3295C27.1493 37.2177 27.2379 37.085 27.2982 36.9389C27.3586 36.7928 27.3897 36.6363 27.3896 36.4782C27.3895 36.3202 27.3582 36.1637 27.2977 36.0177C27.2371 35.8717 27.1483 35.7391 27.0365 35.6274L18.8122 27.3988ZM19.548 12.7672C20.4152 12.87 21.2505 13.1569 21.9979 13.6086C22.7454 14.0603 23.3877 14.6664 23.882 15.3864C24.3762 16.1063 24.711 16.9236 24.864 17.7834C25.0169 18.6432 24.9844 19.5257 24.7688 20.372C24.5531 21.2183 24.1591 22.0087 23.6133 22.6904C23.0675 23.3721 22.3824 23.9294 21.6038 24.325C20.8252 24.7205 19.9711 24.9453 19.0987 24.9841C18.2262 25.0229 17.3555 24.875 16.5449 24.5502C15.8403 24.2506 15.2028 23.813 14.6701 23.2631L14.4899 23.0829C13.921 22.5351 13.468 21.8786 13.1578 21.1524C12.7595 20.1666 12.6243 19.0942 12.7653 18.0404C12.9064 16.9866 13.3189 15.9876 13.9623 15.1412C14.6058 14.2949 15.4582 13.6303 16.4359 13.2126C17.4136 12.7949 18.4831 12.6385 19.5394 12.7586L19.548 12.7672Z" fill="black"/>
<path d="M37.7064 18.8593C37.7074 15.7827 36.9554 12.7527 35.5162 10.0335C34.077 7.31438 31.9942 4.98876 29.4495 3.25961C26.9049 1.53045 23.9758 0.450289 20.9177 0.113386C17.8597 -0.223516 14.7657 0.193075 11.9056 1.32681C9.0456 2.46054 6.50647 4.27696 4.50981 6.61757C2.51315 8.95819 1.11963 11.7519 0.450844 14.7548C-0.217942 17.7578 -0.141668 20.8788 0.673007 23.8455C1.48768 26.8123 3.016 29.5345 5.12462 31.7748C5.17098 31.8521 5.22564 31.924 5.28764 31.9893L17.9951 44.6732C18.223 44.8875 18.5253 45.0047 18.838 44.9999C19.1508 44.9951 19.4493 44.8687 19.6705 44.6475C19.8916 44.4264 20.018 44.1278 20.0228 43.8151C20.0276 43.5023 19.9105 43.2 19.6962 42.9722L7.13242 30.4084C7.10189 30.3632 7.0682 30.3202 7.0316 30.2797C4.7801 27.9482 3.2677 25.0034 2.68433 21.8152C2.10097 18.627 2.47265 15.3375 3.7527 12.3598C5.03275 9.38211 7.1641 6.84904 9.87906 5.07871C12.594 3.30838 15.7716 2.37972 19.0126 2.40937C22.2536 2.43902 25.4136 3.42565 28.0957 5.24535C30.7778 7.06505 32.8625 9.63669 34.0879 12.6373C35.3132 15.6379 35.6247 18.9336 34.9831 22.1107C34.3415 25.2877 32.7755 28.2043 30.4817 30.4942C30.4811 30.4985 30.4811 30.5028 30.4817 30.5071L30.4667 30.5178L28.0771 32.8903C27.8512 33.1159 27.7242 33.4219 27.724 33.7411C27.7238 34.0603 27.8504 34.3665 28.076 34.5924C28.3016 34.8183 28.6076 34.9453 28.9268 34.9455C29.246 34.9457 29.5523 34.8191 29.7781 34.5935L32.1527 32.2081L32.1634 32.1974H32.1763C33.9349 30.4508 35.3293 28.3724 36.2786 26.0828C37.2279 23.7931 37.7132 21.3378 37.7064 18.8593Z" fill="black"/>
<path d="M52.868 26.82C53.028 26.82 53.168 26.88 53.288 27C53.408 27.1067 53.468 27.24 53.468 27.4C53.468 27.5733 53.408 27.72 53.288 27.84C53.168 27.9467 53.028 28 52.868 28H45.728C45.5547 28 45.408 27.94 45.288 27.82C45.1814 27.7 45.128 27.56 45.128 27.4V14.6C45.128 14.44 45.188 14.3 45.308 14.18C45.428 14.06 45.5814 14 45.768 14C45.928 14 46.068 14.06 46.188 14.18C46.3214 14.3 46.388 14.44 46.388 14.6V27.16L46.008 26.82H52.868ZM68.0573 21C68.0573 22.0533 67.8906 23.02 67.5573 23.9C67.2373 24.7667 66.7773 25.5267 66.1773 26.18C65.5773 26.82 64.8639 27.32 64.0373 27.68C63.2239 28.0267 62.3306 28.2 61.3573 28.2C60.3839 28.2 59.4839 28.0267 58.6573 27.68C57.8439 27.32 57.1373 26.82 56.5373 26.18C55.9373 25.5267 55.4706 24.7667 55.1373 23.9C54.8173 23.02 54.6573 22.0533 54.6573 21C54.6573 19.9467 54.8173 18.9867 55.1373 18.12C55.4706 17.24 55.9373 16.48 56.5373 15.84C57.1373 15.1867 57.8439 14.6867 58.6573 14.34C59.4839 13.98 60.3839 13.8 61.3573 13.8C62.3306 13.8 63.2239 13.98 64.0373 14.34C64.8639 14.6867 65.5773 15.1867 66.1773 15.84C66.7773 16.48 67.2373 17.24 67.5573 18.12C67.8906 18.9867 68.0573 19.9467 68.0573 21ZM66.7773 21C66.7773 19.8133 66.5439 18.7733 66.0773 17.88C65.6239 16.9733 64.9906 16.2667 64.1773 15.76C63.3639 15.2533 62.4239 15 61.3573 15C60.3039 15 59.3639 15.2533 58.5373 15.76C57.7239 16.2667 57.0839 16.9733 56.6173 17.88C56.1639 18.7733 55.9373 19.8133 55.9373 21C55.9373 22.1867 56.1639 23.2333 56.6173 24.14C57.0839 25.0333 57.7239 25.7333 58.5373 26.24C59.3639 26.7467 60.3039 27 61.3573 27C62.4239 27 63.3639 26.7467 64.1773 26.24C64.9906 25.7333 65.6239 25.0333 66.0773 24.14C66.5439 23.2333 66.7773 22.1867 66.7773 21ZM76.5898 14C77.5764 14 78.4364 14.1867 79.1698 14.56C79.9164 14.9333 80.5298 15.4533 81.0098 16.12C81.4898 16.7733 81.8431 17.52 82.0698 18.36C82.3098 19.2 82.4298 20.08 82.4298 21C82.4298 22.28 82.2164 23.4533 81.7898 24.52C81.3764 25.5733 80.7364 26.42 79.8698 27.06C79.0164 27.6867 77.9231 28 76.5898 28H71.4898C71.3298 28 71.1898 27.94 71.0698 27.82C70.9498 27.7 70.8898 27.56 70.8898 27.4V14.6C70.8898 14.44 70.9498 14.3 71.0698 14.18C71.1898 14.06 71.3298 14 71.4898 14H76.5898ZM76.3898 26.82C77.5231 26.82 78.4364 26.56 79.1298 26.04C79.8231 25.52 80.3298 24.82 80.6498 23.94C80.9831 23.0467 81.1498 22.0667 81.1498 21C81.1498 20.2267 81.0564 19.4933 80.8698 18.8C80.6964 18.0933 80.4164 17.4733 80.0298 16.94C79.6564 16.3933 79.1631 15.9667 78.5498 15.66C77.9498 15.34 77.2298 15.18 76.3898 15.18H72.0098L72.1498 15V27.02L72.0298 26.82H76.3898ZM85.8648 14H93.2048C93.3648 14 93.5048 14.06 93.6248 14.18C93.7448 14.2867 93.8048 14.4267 93.8048 14.6C93.8048 14.7733 93.7448 14.9133 93.6248 15.02C93.5048 15.1267 93.3648 15.18 93.2048 15.18H86.3248L86.5248 14.84V20.46L86.3048 20.2H92.3048C92.4648 20.2 92.6048 20.26 92.7248 20.38C92.8448 20.5 92.9048 20.64 92.9048 20.8C92.9048 20.9733 92.8448 21.1133 92.7248 21.22C92.6048 21.3267 92.4648 21.38 92.3048 21.38H86.3448L86.5248 21.18V26.94L86.4248 26.82H93.2048C93.3648 26.82 93.5048 26.88 93.6248 27C93.7448 27.12 93.8048 27.26 93.8048 27.42C93.8048 27.5933 93.7448 27.7333 93.6248 27.84C93.5048 27.9467 93.3648 28 93.2048 28H85.8648C85.7048 28 85.5648 27.94 85.4448 27.82C85.3248 27.7 85.2648 27.56 85.2648 27.4V14.6C85.2648 14.44 85.3248 14.3 85.4448 14.18C85.5648 14.06 85.7048 14 85.8648 14Z" fill="black"/>
</svg>
